<svg width="202" height="64" viewBox="0 0 202 64" fill="none" xmlns="http://www.w3.org/2000/svg">
<path d="M0.392 48V0.479998H25.664C31.616 0.527997 36.008 1.632 38.84 3.792C41.72 5.904 43.16 9.048 43.16 13.224C43.16 16.008 42.32 18.384 40.64 20.352C38.96 22.32 36.392 23.544 32.936 24.024V24.096C36.824 24.576 39.704 25.824 41.576 27.84C43.448 29.856 44.384 32.352 44.384 35.328C44.384 43.776 38.648 48 27.176 48H0.392ZM14.504 19.344H22.712C26.312 19.344 28.112 17.928 28.112 15.096C28.112 12.264 26.312 10.848 22.712 10.848H14.504V19.344ZM14.504 38.064H23.792C27.488 38.064 29.336 36.624 29.336 33.744C29.336 30.912 27.488 29.496 23.792 29.496H14.504V38.064ZM69.3202 25.392C69.3202 24 68.9602 22.92 68.2402 22.152C67.5202 21.336 66.5122 20.928 65.2162 20.928C63.9682 20.928 62.8882 21.264 61.9762 21.936C61.1122 22.608 60.5602 23.88 60.3202 25.752L48.0082 23.52C48.4882 19.776 50.2402 16.8 53.2642 14.592C56.2882 12.384 60.6082 11.28 66.2242 11.28C71.9842 11.28 76.3282 12.504 79.2562 14.952C82.2322 17.4 83.7202 20.76 83.7202 25.032V37.128C83.7202 39.048 84.6322 40.008 86.4562 40.008C87.1282 40.008 87.6562 39.912 88.0402 39.72L87.3202 47.496C85.6882 48.312 83.7442 48.72 81.4882 48.72C78.9442 48.72 76.7602 48.264 74.9362 47.352C73.1122 46.392 71.8882 44.952 71.2642 43.032C70.3042 44.808 68.7682 46.2 66.6562 47.208C64.5442 48.216 62.1922 48.72 59.6002 48.72C55.8562 48.72 52.9282 47.88 50.8162 46.2C48.7042 44.472 47.6482 42.072 47.6482 39C47.6482 33.672 50.9122 30.36 57.4402 29.064L69.3202 26.616V25.392ZM61.6162 37.128C61.6162 38.04 61.9042 38.76 62.4802 39.288C63.1042 39.768 63.9202 40.008 64.9282 40.008C66.0802 40.008 67.0882 39.624 67.9522 38.856C68.8642 38.088 69.3202 36.936 69.3202 35.4V32.736L65.0722 33.672C62.7682 34.2 61.6162 35.352 61.6162 37.128ZM115.675 38.856C120.091 38.856 123.475 39.768 125.827 41.592C128.179 43.368 129.355 46.032 129.355 49.584C129.355 54.384 127.531 57.888 123.883 60.096C120.235 62.352 115.171 63.48 108.691 63.48C101.875 63.48 97.0033 62.712 94.0753 61.176C91.1953 59.64 89.7553 57.456 89.7553 54.624C89.7553 53.04 90.3073 51.696 91.4113 50.592C92.5633 49.488 94.3873 48.744 96.8833 48.36C93.0433 47.016 91.1233 44.448 91.1233 40.656C91.1233 38.88 91.6513 37.368 92.7073 36.12C93.7633 34.872 95.2033 33.936 97.0273 33.312C93.1873 31.296 91.2673 28.056 91.2673 23.592C91.2673 19.56 92.8273 16.512 95.9473 14.448C99.1153 12.336 103.651 11.28 109.555 11.28C112.291 11.28 114.739 11.496 116.899 11.928C117.091 10.104 117.571 8.376 118.339 6.744C119.107 5.112 120.211 3.792 121.651 2.784C123.091 1.728 124.915 1.2 127.123 1.2C127.315 1.2 127.531 1.2 127.771 1.2C128.011 1.2 128.251 1.224 128.491 1.272L129.499 10.56C128.779 10.416 128.059 10.344 127.339 10.344C125.803 10.344 124.579 10.656 123.667 11.28C122.755 11.856 122.107 12.624 121.723 13.584C125.851 15.648 127.915 18.984 127.915 23.592C127.915 27.576 126.331 30.6 123.163 32.664C120.043 34.728 115.507 35.76 109.555 35.76C106.771 35.76 104.299 35.52 102.139 35.04C101.035 35.376 100.483 35.976 100.483 36.84C100.483 38.184 101.635 38.856 103.939 38.856H115.675ZM109.555 19.128C108.307 19.128 107.299 19.488 106.531 20.208C105.811 20.928 105.451 22.032 105.451 23.52C105.451 24.96 105.811 26.064 106.531 26.832C107.299 27.552 108.307 27.912 109.555 27.912C110.803 27.912 111.787 27.552 112.507 26.832C113.275 26.064 113.659 24.96 113.659 23.52C113.659 22.032 113.275 20.928 112.507 20.208C111.787 19.488 110.803 19.128 109.555 19.128ZM108.835 54.408C115.219 54.408 118.411 53.472 118.411 51.6C118.411 51.12 118.243 50.736 117.907 50.448C117.571 50.208 116.923 50.088 115.963 50.088H102.499C101.827 50.088 101.299 50.256 100.915 50.592C100.531 50.928 100.339 51.36 100.339 51.888C100.339 52.704 101.083 53.328 102.571 53.76C104.107 54.192 106.195 54.408 108.835 54.408ZM131.539 48V39.432L144.211 25.248L147.739 21.72L142.339 21.864H131.539V12H163.867V20.568L151.339 34.608L147.667 38.28L153.787 38.136H164.515V48H131.539ZM168.243 48V39.432L180.915 25.248L184.443 21.72L179.043 21.864H168.243V12H200.571V20.568L188.043 34.608L184.371 38.28L190.491 38.136H201.219V48H168.243Z" fill="black"/>
</svg>
